<?xml version="1.0" standalone="no"?>
<!DOCTYPE svg PUBLIC "-//W3C//DTD SVG 20010904//EN"
 "http://www.w3.org/TR/2001/REC-SVG-20010904/DTD/svg10.dtd">
<svg version="1.0" xmlns="http://www.w3.org/2000/svg"
 width="112.000000pt" height="112.000000pt" viewBox="0 0 112.000000 112.000000"
 preserveAspectRatio="xMidYMid meet">
<metadata>
Created by potrace 1.11, written by Peter Selinger 2001-2013
</metadata>
<g transform="translate(0.000000,112.000000) scale(0.100000,-0.100000)"
fill="#000000" stroke="none">
<path d="M382 1021 c-106 -39 -170 -96 -228 -201 -25 -47 -62 -103 -81 -125
-32 -36 -34 -41 -27 -89 4 -28 8 -60 9 -71 1 -11 9 -56 19 -101 16 -70 24 -86
65 -130 45 -49 47 -50 99 -48 49 2 54 0 64 -25 6 -14 12 -29 12 -33 3 -22 93
-109 133 -128 46 -22 149 -35 158 -20 2 4 24 13 47 19 58 17 99 56 148 143 23
40 44 75 46 77 2 3 15 -6 28 -18 20 -19 30 -21 74 -15 45 6 54 11 73 43 11 19
22 42 24 51 2 8 8 33 13 55 25 96 23 153 -8 241 -16 46 -27 84 -25 84 3 0 -11
32 -32 71 -29 56 -52 83 -116 136 -74 61 -103 76 -171 89 -16 2 -37 9 -47 14
-10 6 -60 10 -111 9 -74 -1 -108 -6 -166 -28z"/>
</g>
</svg>
